<?xml version="1.0" encoding="UTF-8" standalone="no"?>
<!-- Created with Inkscape (http://www.inkscape.org/) -->

<svg
   xmlns:dc="http://purl.org/dc/elements/1.1/"
   xmlns:cc="http://creativecommons.org/ns#"
   xmlns:rdf="http://www.w3.org/1999/02/22-rdf-syntax-ns#"
   xmlns:svg="http://www.w3.org/2000/svg"
   xmlns="http://www.w3.org/2000/svg"
   xmlns:sodipodi="http://sodipodi.sourceforge.net/DTD/sodipodi-0.dtd"
   xmlns:inkscape="http://www.inkscape.org/namespaces/inkscape"
   width="512"
   height="512"
   id="svg2"
   version="1.1"
   inkscape:version="0.47 r22583"
   sodipodi:docname="question.svg"
   inkscape:export-filename="/home/m.gabriel/MyDocuments/4projects/x2go-git/pyhoca-gui/icons/PyHoca/16x16/question.png"
   inkscape:export-xdpi="2.8099999"
   inkscape:export-ydpi="2.8099999">
  <defs
     id="defs4">
    <inkscape:perspective
       sodipodi:type="inkscape:persp3d"
       inkscape:vp_x="0 : 526.18109 : 1"
       inkscape:vp_y="0 : 1000 : 0"
       inkscape:vp_z="744.09448 : 526.18109 : 1"
       inkscape:persp3d-origin="372.04724 : 350.78739 : 1"
       id="perspective10" />
    <inkscape:perspective
       id="perspective2926"
       inkscape:persp3d-origin="0.5 : 0.33333333 : 1"
       inkscape:vp_z="1 : 0.5 : 1"
       inkscape:vp_y="0 : 1000 : 0"
       inkscape:vp_x="0 : 0.5 : 1"
       sodipodi:type="inkscape:persp3d" />
    <filter
       inkscape:collect="always"
       id="filter5249"
       x="-0.15494952"
       width="1.309899"
       y="-0.12352031"
       height="1.2470406">
      <feGaussianBlur
         inkscape:collect="always"
         stdDeviation="9.3746818"
         id="feGaussianBlur5251" />
    </filter>
    <filter
       inkscape:collect="always"
       id="filter5263"
       x="-0.59256971"
       width="2.1851394"
       y="-0.49380802"
       height="1.987616">
      <feGaussianBlur
         inkscape:collect="always"
         stdDeviation="8.7395686"
         id="feGaussianBlur5265" />
    </filter>
  </defs>
  <sodipodi:namedview
     id="base"
     pagecolor="#ffffff"
     bordercolor="#666666"
     borderopacity="1.0"
     inkscape:pageopacity="0.0"
     inkscape:pageshadow="2"
     inkscape:zoom="0.84753848"
     inkscape:cx="222.85712"
     inkscape:cy="238.57145"
     inkscape:document-units="px"
     inkscape:current-layer="layer1"
     showgrid="false"
     inkscape:window-width="1920"
     inkscape:window-height="1032"
     inkscape:window-x="-4"
     inkscape:window-y="-3"
     inkscape:window-maximized="1" />
  <metadata
     id="metadata7">
    <rdf:RDF>
      <cc:Work
         rdf:about="">
        <dc:format>image/svg+xml</dc:format>
        <dc:type
           rdf:resource="http://purl.org/dc/dcmitype/StillImage" />
        <dc:title></dc:title>
      </cc:Work>
    </rdf:RDF>
  </metadata>
  <g
     inkscape:label="Ebene 1"
     inkscape:groupmode="layer"
     id="layer1"
     transform="translate(0,-540.36218)">
    <g
       id="g5293"
       inkscape:export-filename="/home/m.gabriel/MyDocuments/4projects/x2go-git/pyhoca-gui/icons/PyHoca/128x128/question.png"
       inkscape:export-xdpi="22.5"
       inkscape:export-ydpi="22.5">
      <rect
         transform="translate(0,540.36218)"
         y="93.139961"
         x="155.74515"
         height="333.90814"
         width="205.30042"
         id="rect5289"
         style="fill:#ffffff;fill-opacity:1;stroke:#ffffff;stroke-opacity:1" />
      <rect
         y="557.90076"
         x="214.65086"
         height="89.848747"
         width="122.8856"
         id="rect5277"
         style="fill:#ffffff;fill-opacity:1;stroke:#ffffff;stroke-width:0.82269561;stroke-opacity:1" />
      <path
         style="fill:#fefefd;fill-opacity:0"
         d="m 257.14285,1054.0765 -256.0000027,0 0,-256.00002 0,-256 256.0000027,0 256,0 0,256 0,256.00002 -256,0 z"
         id="path3025" />
      <path
         style="fill:#fdebcf"
         d="m 152.14285,1046.5456 c -18.425,0.1728 -35.3,0.1256 -37.5,-0.1049 -2.2,-0.2305 -9.09811,-1.1023 -15.329143,-1.9372 -6.231024,-0.835 -14.452405,-2.2235 -18.269734,-3.0855 l -6.940599,-1.5674 -3.206467,-2.1609 -3.206467,-2.1608 -2.273796,-3.3741 -2.273797,-3.3741 0,-5.7042 0,-5.7043 2.273797,-3.374 2.273796,-3.3741 3.170398,-2.1366 3.170398,-2.1365 9.305805,-1.6915 9.305806,-1.6915 10.269823,-3.42463 c 5.6484,-1.88355 13.5234,-4.95522 17.5,-6.82592 3.9766,-1.8707 8.11475,-4.08265 9.1959,-4.91544 l 1.96571,-1.51417 -4.86471,-2.85568 c -2.6756,-1.57062 -9.94606,-6.45568 -16.15659,-10.85568 l -11.291863,-8 -10.823378,-9.59929 -10.823376,-9.59928 -8.586398,-9.90072 C 64.305447,930.0318 57.634536,921.77131 54.20372,917.12054 50.772903,912.46978 45.478281,904.43783 42.437894,899.27177 39.397506,894.10571 34.519658,884.85036 31.598231,878.70432 l -5.311686,-11.17462 -4.482263,-13.47661 -4.482264,-13.47661 -2.04776,-9.53951 C 14.14799,825.79024 12.532676,816.2047 11.684672,809.73576 l -1.541825,-11.76171 0,-15.9882 0,-15.9882 1.057763,-9.71058 c 0.581769,-5.34083 1.959742,-14.21059 3.062162,-19.71059 1.102419,-5.5 3.16261,-14.05 4.578203,-19 1.415592,-4.95 4.107508,-13.05 5.982035,-18 1.874527,-4.95 6.106656,-14.49511 9.404732,-21.21136 l 5.996501,-12.21137 8.456877,-12.66362 c 4.651283,-6.965 11.538611,-16.31988 15.305173,-20.78864 3.766563,-4.46876 11.530154,-12.72363 17.252425,-18.34417 5.722271,-5.62054 13.554129,-12.74473 17.404129,-15.83155 3.850003,-3.08681 12.303493,-9.14538 18.785543,-13.46347 l 11.78554,-7.85109 10.75147,-5.49951 c 5.91331,-3.02473 15.68481,-7.51868 21.71446,-9.98656 6.02964,-2.46788 15.68799,-5.8935 21.46299,-7.6125 5.775,-1.71899 14.325,-3.97666 19,-5.01704 4.675,-1.04038 13.57797,-2.59529 19.78438,-3.45536 l 11.28438,-1.56376 24.71562,0.005 24.71562,0.005 13.30857,1.95799 13.30857,1.95799 13.57634,3.57158 c 7.46699,1.96437 17.90313,5.16698 23.19143,7.11692 5.2883,1.94993 16.36509,6.8377 24.61509,10.8617 l 15,7.31637 12,8.01813 c 6.6,4.40997 15.6,10.93321 20,14.49609 l 8,6.47797 12.5852,12.85802 12.5852,12.85803 8.06925,10.88215 c 4.43808,5.98519 10.88119,15.60269 14.31801,21.37222 l 6.24877,10.49006 5.23557,11.62779 c 2.87957,6.39528 6.61444,15.67778 8.29972,20.62778 1.68529,4.95 4.19517,13.5 5.57751,19 1.38235,5.5 3.30149,14.5 4.26477,20 l 1.7514,10 0.0195,27.5 0.0195,27.5 -1.84491,12 -1.84491,12 -3.267,13 -3.267,13 -3.75197,10 c -2.06359,5.5 -6.22305,14.95 -9.24325,21 -3.0202,6.05 -7.97021,14.825 -11.00002,19.5 -3.02982,4.675 -8.55321,12.32666 -12.27422,17.0037 l -6.76547,8.5037 -12.35784,12.01179 -12.35785,12.01179 -11.66536,8.75043 -11.66537,8.75043 -13.33463,8.08491 -13.33464,8.0849 -20.5,10.20828 -20.5,10.2083 -15.5,5.1325 c -8.525,2.8229 -20,6.2585 -25.5,7.6346 -5.5,1.3761 -17.65,4.0685 -27,5.9832 -9.35,1.9148 -24.10696,4.6558 -32.79325,6.0912 -8.68629,1.4355 -23.31129,3.5291 -32.5,4.6526 l -16.70671,2.0426 -33.5,0.3142 z m 100.96862,-138.46912 18.03138,0 0,-22.02256 0,-22.02256 -18.25,0.27256 -18.25,0.27256 -0.27142,20.473 c -0.14927,11.26015 -0.0509,21.04765 0.21862,21.75 l 0.49003,1.277 18.03139,0 z m -1.5,-64 16.53138,0 0.0198,-5.25 c 0.0109,-2.8875 0.46129,-8.30325 1.00089,-12.035 l 0.98108,-6.78499 2.53185,-4.99637 2.53184,-4.99636 11.87603,-12.41703 c 6.53182,-6.82937 14.54895,-15.52265 17.81585,-19.31839 3.2669,-3.79575 7.38422,-9.00072 9.14959,-11.5666 1.76537,-2.56588 4.48026,-7.246 6.03308,-10.40025 l 2.8233,-5.73501 1.61834,-7.19741 1.61834,-7.1974 0,-6.59475 0,-6.59476 -1.56611,-7.70784 -1.56611,-7.70784 -3.89143,-8.10322 -3.89142,-8.10323 -7.12008,-7.62411 -7.12008,-7.62411 -7.17238,-4.45673 -7.17239,-4.45673 -7.59332,-2.53807 -7.59332,-2.53808 -9.50153,-1.12057 -9.50153,-1.12058 -9.39837,1.14273 -9.39837,1.14273 -6.84138,2.3792 -6.84139,2.3792 -5.66539,3.32078 -5.6654,3.32079 -7.51898,7.5 -7.51898,7.5 -4.17725,8.04934 -4.17725,8.04935 -2.41658,8.45065 c -1.32911,4.64787 -2.70292,10.32749 -3.05291,12.62139 l -0.63633,4.17074 2.74914,0.54793 c 1.51203,0.30137 8.99714,1.47654 16.63358,2.6115 7.63644,1.13496 13.96945,1.93656 14.07335,1.78133 0.10391,-0.15523 1.45472,-4.24481 3.0018,-9.08797 l 2.81288,-8.80575 3.68672,-5.69425 3.68673,-5.69426 3.87623,-3.39434 3.87624,-3.39435 4.5508,-2.04966 4.55081,-2.04967 9.5,-0.39974 9.5,-0.39974 5.9961,2.25768 5.99609,2.25767 5.65612,5.39502 5.65612,5.39503 2.21052,5.13848 2.21051,5.13848 0.50549,5.57462 0.50549,5.57463 -1.16964,5.63413 -1.16965,5.63414 -3.19857,4.84191 -3.19858,4.84191 -15.58838,16.08682 -15.58838,16.08681 -3.0271,4.41509 c -1.6649,2.42829 -4.24207,6.82073 -5.72705,9.76097 l -2.69996,5.34588 -1.89383,7.4048 -1.89383,7.4048 -0.68213,11.40965 -0.68213,11.40965 0.61001,1.58967 0.61001,1.58966 16.53139,0 z m 81.98138,-250.13618 1.95,0.13618 -0.95,-0.89989 c -0.5225,-0.49493 -4.28664,-2.30643 -8.36475,-4.02554 l -7.41475,-3.12567 -9.58525,-2.46818 c -5.27189,-1.3575 -14.08525,-3.14335 -19.58525,-3.96855 l -10,-1.50038 -12.5,0.0817 c -6.875,0.0449 -14.75,0.39291 -17.5,0.77328 l -5,0.69156 8.5,2.69921 c 4.675,1.48457 12.325,3.36269 17,4.17361 4.675,0.81092 11.65,2.17559 15.5,3.0326 l 7,1.5582 17.5,1.01365 c 9.625,0.5575 18.4,1.16628 19.5,1.35283 1.1,0.18656 2.8775,0.40048 3.95,0.47538 z"
         id="path3023" />
      <path
         style="fill:#fde399"
         d="m 142.64285,1046.9106 c -3.3,-0.07 -11.99122,-0.4891 -19.31382,-0.9312 -7.32261,-0.4421 -18.14752,-1.4758 -24.055363,-2.2971 -5.907846,-0.8213 -13.883687,-2.208 -17.724093,-3.0815 l -6.982557,-1.5881 -3.157751,-1.9204 -3.157751,-1.9203 -1.654554,-2.5252 c -0.910005,-1.3888 -2.012065,-4.1103 -2.449023,-6.0477 l -0.794469,-3.5226 0.828307,-3.6726 0.828307,-3.6726 1.920912,-2.5774 c 1.056502,-1.4176 3.260348,-3.3619 4.897435,-4.3208 l 2.976522,-1.7434 8.918948,-1.5523 8.918947,-1.5523 10.500003,-3.4943 10.5,-3.49443 9.25,-4.48224 9.25,-4.48224 -0.0196,-1.22771 -0.0196,-1.2277 -8.65448,-5.43265 c -4.75996,-2.98795 -13.18865,-8.80218 -18.73041,-12.92051 l -10.075913,-7.48786 -12.346333,-12.07949 -12.346332,-12.07949 -7.282605,-9 c -4.005432,-4.95 -10.287542,-13.5 -13.960244,-19 l -6.677639,-10 -7.39614,-15 -7.39614,-15 -3.911194,-11.5 c -2.151157,-6.325 -5.082947,-16.45 -6.51509,-22.5 l -2.603897,-11 -1.575672,-12 -1.575671,-12 -0.02164,-17 -0.02164,-17 1.123742,-9 c 0.618058,-4.95 2.028174,-13.68802 3.13359,-19.41781 1.105417,-5.7298 3.522909,-15.4048 5.372203,-21.5 1.849294,-6.09521 5.435304,-16.02631 7.968912,-22.06913 2.533605,-6.04282 6.666927,-14.81782 9.185156,-19.5 2.51823,-4.68218 7.370073,-12.78806 10.781874,-18.01306 3.411801,-5.225 9.838236,-14.01534 14.280966,-19.53409 l 8.07769,-10.03409 11.994547,-11.56418 11.994547,-11.56417 9.588763,-7.20707 c 5.27382,-3.96389 13.46232,-9.63897 18.19667,-12.61129 4.73434,-2.97231 13.40573,-7.85723 19.26974,-10.85537 5.86401,-2.99813 15.29604,-7.29638 20.96006,-9.55165 5.66402,-2.25528 15.33902,-5.62384 21.5,-7.4857 6.16098,-1.86187 15.92678,-4.31847 21.70178,-5.45913 5.775,-1.14066 14.55,-2.64735 19.5,-3.3482 l 9,-1.27427 23,0 23,0 9,1.27427 c 4.95,0.70085 13.725,2.20754 19.5,3.3482 5.775,1.14066 15.5408,3.59726 21.70178,5.45913 6.16098,1.86186 15.83598,5.23042 21.5,7.4857 5.66402,2.25527 15.09605,6.55352 20.96006,9.55165 5.86401,2.99814 14.49943,7.86048 19.18982,10.80519 4.69039,2.94472 12.91404,8.66402 18.27477,12.70955 l 9.7468,7.35552 10.93616,10.47697 10.93616,10.47698 7.9515,9.52302 7.9515,9.52303 7.3054,11 c 4.01797,6.05 9.36773,14.83088 11.88834,19.51306 2.52062,4.68218 6.6559,13.45718 9.1895,19.5 2.53361,6.04282 6.15627,16.09485 8.05037,22.33786 l 3.44381,11.35092 2.51454,13.61466 2.51453,13.61466 0.79146,14.03442 0.79147,14.03442 -0.76464,15.5 -0.76464,15.5 -1.56226,10.29613 c -0.85925,5.66288 -2.48174,14.43788 -3.60554,19.5 -1.1238,5.06213 -3.86752,14.69944 -6.09715,21.41626 l -4.05387,12.21238 -6.23217,12.78762 c -3.42769,7.03318 -8.39086,16.16261 -11.02925,20.28761 -2.6384,4.125 -7.76348,11.325 -11.38908,16 -3.6256,4.675 -10.65265,12.72106 -15.61568,17.88014 l -9.02369,9.38014 -10,8.22884 c -5.5,4.52587 -14.95,11.61058 -21,15.74382 -6.05,4.13324 -15.5,10.11111 -21,13.28417 -5.5,3.17306 -18.37437,9.90846 -28.6097,14.96751 l -18.60971,9.1984 -15.39029,5.1016 c -8.46467,2.8059 -20.79941,6.4578 -27.41054,8.1153 -6.61113,1.6575 -18.76113,4.3717 -27,6.0316 -8.23887,1.6599 -23.30476,4.3593 -33.47976,5.9987 -10.175,1.6393 -25.025,3.6775 -33,4.5293 -7.975,0.8518 -22.6,1.9882 -32.5,2.5254 -9.9,0.5372 -20.7,0.9193 -24,0.8492 z m 110.5,-137.83412 19,0 0,-23 0,-23 -19,0 -19,0 0,23 0,23 19,0 z m -1.75,-64.22639 17.25,-0.27361 0.6897,-9.66921 c 0.37934,-5.31807 1.15575,-11.39999 1.72537,-13.51538 l 1.03566,-3.84616 3.15496,-4.98463 3.15497,-4.98462 11.6456,-12 c 6.40508,-6.6 13.93509,-14.7 16.73335,-18 2.79826,-3.3 7.12379,-9.04625 9.61229,-12.76945 l 4.52455,-6.76945 2.86178,-8.73055 2.86177,-8.73055 -0.0283,-11.5 -0.0283,-11.5 -2.31872,-7.47478 c -1.2753,-4.11112 -3.35398,-9.51775 -4.61929,-12.01472 -1.26531,-2.49697 -4.41734,-7.35588 -7.00451,-10.79758 l -4.70395,-6.25763 -6.99316,-5.47178 -6.99317,-5.47177 -6.39218,-3.05071 -6.39218,-3.0507 -8.1933,-2.07192 -8.1933,-2.07191 -15.06979,0.49303 -15.06978,0.49303 -7.26391,2.56888 c -3.99515,1.41288 -9.62015,3.83105 -12.5,5.37372 l -5.23616,2.80484 -8.56757,8.5 -8.56757,8.5 -4.05818,8 c -2.232,4.4 -4.77951,10.25 -5.66112,13 -0.88162,2.75 -2.29806,8.34197 -3.14765,12.4266 l -1.5447,7.42661 0.80623,0.80623 0.80624,0.80624 16.40458,2.52973 16.40459,2.52974 0.6478,-0.76257 c 0.35629,-0.41942 1.91805,-4.75527 3.47057,-9.63523 l 2.82278,-8.87265 3.98995,-5.975 3.98995,-5.975 4.60205,-3.37752 4.60205,-3.37752 5,-1.69795 5,-1.69795 7.5,0.0648 7.5,0.0648 5.99263,2.27094 5.99263,2.27094 5.59474,5.59474 5.59474,5.59474 2.16263,5.78015 2.16263,5.78014 0,5.80355 0,5.80356 -1.36339,4.5302 -1.36339,4.5302 -3.04888,4.43139 -3.04888,4.4314 -15.38042,15.94733 -15.38041,15.94734 -3.26942,4.77044 c -1.79818,2.62375 -4.59968,7.61315 -6.22556,11.08756 l -2.95613,6.31712 -1.4644,6.91244 -1.46439,6.91244 -0.0174,12.77361 -0.0174,12.77362 17.25,-0.27362 z m 105.75,-192.51677 c 14.025,-0.32289 31.35,-0.68999 38.5,-0.81577 7.15,-0.12578 14.49129,-0.27647 16.31398,-0.33488 l 3.31399,-0.10619 -2.2987,-4.08999 c -1.26429,-2.24949 -4.65486,-6.94646 -7.5346,-10.4377 l -5.23589,-6.34772 -8.77939,-7.67884 -8.77939,-7.67883 -11,-7.32347 -11,-7.32347 -12.5,-5.99634 -12.5,-5.99634 -10.74406,-3.55666 -10.74406,-3.55667 -12.25594,-2.47215 -12.25594,-2.47216 -11,-1.03399 c -6.05,-0.5687 -15.56482,-1.03438 -21.14405,-1.03483 -5.57922,-4.6e-4 -14.80422,0.46806 -20.5,1.04116 -5.69577,0.5731 -15.59069,2.11497 -21.98872,3.42638 l -11.63276,2.38439 -8.99605,3.01395 -8.99605,3.01395 -13.04549,6.44732 -13.04549,6.44731 -8.5757,5.58992 -8.57569,5.58992 0,0.94297 0,0.94298 3.25,0.70394 c 1.7875,0.38717 8.425,2.28117 14.75,4.20888 6.325,1.92771 14.875,4.2771 19,5.22085 4.125,0.94376 14.925,3.99441 24,6.77923 9.075,2.78482 21,6.27291 26.5,7.75131 l 10,2.68802 13,0.32364 13,0.32365 7.65332,1.60018 c 4.20933,0.88011 12.18866,3.16057 17.73186,5.06771 l 10.07853,3.46751 15.26814,0.93395 15.26815,0.93395 25.5,-0.58707 z"
         id="path3021" />
      <path
         style="fill:#fdcf6c"
         d="m 152.64285,1045.5561 -27,0.3864 -10.5,-0.9246 c -5.775,-0.5085 -15.865613,-1.832 -22.423576,-2.9412 -6.557965,-1.1091 -13.741652,-2.5062 -15.963747,-3.1045 l -4.040175,-1.0879 -3.703308,-3.7033 -3.703309,-3.7033 -0.694235,-3.7006 -0.694235,-3.7006 0.660615,-3.5214 0.660615,-3.5214 2.946074,-3.3554 2.946074,-3.3554 2.754602,-1.0327 c 1.515031,-0.568 6.798213,-1.7926 11.740403,-2.7213 l 8.985802,-1.6886 8.83954,-2.9615 c 4.86174,-1.6288 12.2003,-4.49303 16.30789,-6.36492 4.1076,-1.87189 8.7987,-4.35072 10.42467,-5.50851 1.62596,-1.15779 2.9563,-2.43094 2.9563,-2.82921 0,-0.39827 -2.95601,-2.45332 -6.5689,-4.56677 -3.6129,-2.11346 -10.9254,-6.99101 -16.25,-10.839 -5.32461,-3.84799 -14.101802,-10.83824 -19.504878,-15.53388 l -9.823776,-8.53753 -8.44571,-9.35119 C 67.904445,932.24464 60.730109,923.50335 56.606617,917.9627 52.483126,912.42205 46.853994,904.07037 44.097436,899.40342 41.340877,894.73647 37.354423,887.4662 35.238648,883.24727 33.122872,879.02833 29.285011,870.23933 26.710066,863.71615 l -4.681718,-11.86032 -3.356836,-13.13968 -3.356835,-13.13967 -1.787345,-11.5 -1.787345,-11.5 -0.0094,-21 -0.0094,-21 1.780113,-11.5 c 0.979062,-6.325 2.62939,-15.1461 3.667394,-19.60245 1.038004,-4.45636 3.289571,-12.48012 5.003482,-17.8306 1.713911,-5.35048 5.109146,-14.485 7.544968,-20.29893 2.435821,-5.81393 6.454008,-14.28614 8.929305,-18.82713 2.475297,-4.541 7.568949,-12.91037 11.319228,-18.59862 3.750287,-5.68825 10.192773,-14.39227 14.316643,-19.34227 4.12387,-4.95 12.192027,-13.60246 17.929237,-19.22769 5.737209,-5.62523 13.58129,-12.74569 17.43129,-15.82325 3.850003,-3.07756 12.112973,-9.02128 18.362153,-13.20826 l 11.36214,-7.6127 14.13786,-7.12584 14.13785,-7.12583 10,-3.61848 c 5.5,-1.99016 13.825,-4.76704 18.5,-6.17083 4.675,-1.4038 12.775,-3.44168 18,-4.52861 5.225,-1.08694 14.81055,-2.66976 21.30122,-3.51738 l 11.80121,-1.54113 20.39757,0 20.39757,0 11.80121,1.54347 c 6.49067,0.84891 16.30122,2.46559 21.80122,3.59263 l 10,2.04916 16.5,5.41746 16.5,5.41746 15,7.41278 15,7.41278 12,7.99114 c 6.6,4.39512 15.6,10.90622 20,14.4691 l 8,6.47797 12.5852,12.85802 12.5852,12.85803 8.06925,10.88215 c 4.43808,5.98519 10.90424,15.64138 14.36922,21.4582 l 6.29998,10.57603 4.69887,10.54181 c 2.58437,5.798 6.27565,15.07797 8.20283,20.62216 1.92719,5.5442 4.64542,14.7692 6.04052,20.5 1.3951,5.73081 3.25216,15.30563 4.1268,21.27739 l 1.59026,10.85774 0.6011,14.14226 0.6011,14.14226 -1.19083,15.44107 -1.19084,15.44107 -1.92419,11.05893 c -1.0583,6.08241 -2.86045,14.65893 -4.00476,19.05893 -1.14432,4.4 -3.43705,12.05 -5.09497,17 l -3.01439,9 -6.39559,13.30127 -6.39558,13.30127 -5.65628,8.69873 c -3.11095,4.7843 -8.70073,12.52539 -12.42174,17.20243 l -6.76547,8.5037 -12.35784,12.01179 -12.35785,12.01179 -11.66536,8.75043 -11.66537,8.75043 -13.33463,8.09237 -13.33464,8.09237 -20.76428,10.29874 -20.76427,10.2988 -14.23573,4.6746 -14.23572,4.6746 -16,3.8758 c -8.8,2.1316 -24.325,5.44 -34.5,7.3518 -10.175,1.9119 -24.8,4.4045 -32.5,5.5392 -7.7,1.1346 -20.525,2.7605 -28.5,3.613 l -14.5,1.55 -27,0.3865 z m 18.25,-33.8761 c 7.0125,-0.3789 19.00888,-1.3702 26.65863,-2.2031 7.64975,-0.8329 21.82475,-2.8189 31.5,-4.4135 9.67525,-1.5945 24.34137,-4.2891 32.59137,-5.98809 8.25,-1.69897 21.02321,-4.65912 28.38491,-6.57811 7.3617,-1.91899 17.7117,-5.09499 23,-7.05778 l 9.61509,-3.56872 11.16832,-5.92068 c 6.14258,-3.25637 12.16851,-6.73058 13.39096,-7.72046 l 2.22263,-1.79977 -2.66409,-7.99952 c -1.46524,-4.39974 -4.47299,-11.53666 -6.68389,-15.85983 -2.21089,-4.32317 -5.97512,-10.59038 -8.36495,-13.92714 -2.38984,-3.33675 -7.00247,-8.78142 -10.25029,-12.09926 -3.24783,-3.31785 -8.58569,-8.09121 -11.86192,-10.60748 -3.27622,-2.51627 -8.46816,-5.98917 -11.53763,-7.71756 -3.06947,-1.72839 -5.88197,-3.14252 -6.25,-3.14252 l -0.66914,0 0,14.06574 0,14.06574 -1.03518,1.93426 -1.03519,1.93426 -35.9058,0 -35.9058,0 -0.67106,-1.08581 -0.67107,-1.0858 -0.53741,-18.98509 -0.53742,-18.98509 -2.60053,0.64548 c -1.4303,0.35501 -5.897,1.96189 -9.926,3.57085 -4.029,1.60896 -10.43412,4.74094 -14.2336,6.95995 -3.79948,2.21902 -10.17802,6.66598 -14.17454,9.88214 l -7.2664,5.84757 -5.06942,5.8679 c -2.78819,3.22735 -6.8891,8.5679 -9.11314,11.8679 -2.22405,3.3 -5.4457,8.78064 -7.15923,12.17919 l -3.11551,6.17919 4.09879,3.01428 c 2.25433,1.65786 9.03918,5.59156 15.07745,8.74156 l 10.97867,5.72727 2.52197,3.81095 2.52197,3.81096 0.4845,4.29846 0.4845,4.29847 -1.56307,3.74093 c -0.85968,2.05752 -3.56366,6.31895 -6.00884,9.46984 -2.44518,3.1509 -6.28917,7.50772 -8.54221,9.68182 -2.25304,2.1741 -4.09643,4.3774 -4.09643,4.8961 l 0,0.9432 12.75,-0.6887 z m 82,-102.83238 19.75,-0.27114 0,-22.5 0,-22.5 -19.75,-0.27114 -19.75,-0.27114 0,23.04228 0,23.04228 19.75,-0.27114 z m -1.88788,-63.77114 18.13788,0 0.0258,-1.75 c 0.0142,-0.9625 0.45819,-6.19645 0.98667,-11.631 l 0.96086,-9.881 2.4047,-5.25254 2.40469,-5.25254 12.01741,-12.56485 c 6.60957,-6.91067 14.82731,-15.82963 18.26163,-19.8199 3.43433,-3.99028 8.33616,-10.45956 10.89295,-14.37617 l 4.64872,-7.12113 2.36572,-6.92543 2.36572,-6.92544 0.43955,-11.22032 0.43955,-11.22032 -1.6834,-7.56656 -1.6834,-7.56655 -4.10297,-8.19749 -4.10298,-8.1975 -8.57061,-8.51563 -8.57061,-8.51563 -5.6654,-3.32079 -5.66539,-3.32078 -6.83461,-2.37176 c -3.75903,-1.30447 -9.7596,-2.84422 -13.3346,-3.42166 l -6.5,-1.0499 -8.16203,-0.008 -8.16203,-0.008 -7.33797,1.41185 c -4.03588,0.77652 -9.94962,2.39288 -13.14164,3.59193 l -5.80367,2.18008 -7.39961,4.94916 -7.39962,4.94917 -5.61971,6.2089 -5.61971,6.20891 -4.83217,9.6511 -4.83217,9.65109 -2.18383,9.45055 -2.18382,9.45055 0.33899,2.37902 0.33899,2.37901 14.5,2.20714 c 7.975,1.21392 15.90946,2.23512 17.63214,2.26934 l 3.13215,0.0622 2.70169,-8.75 2.70169,-8.75 2.48161,-4.28974 c 1.36488,-2.35935 3.89562,-5.90021 5.62386,-7.86857 1.72824,-1.96835 4.7953,-4.62235 6.8157,-5.89777 l 3.67344,-2.31894 5.81917,-1.69168 5.81916,-1.69168 7.21702,0.54582 7.21701,0.54582 4.58344,2.02748 4.58344,2.02747 5.39683,5.1041 5.39684,5.1041 2.23398,5.19304 2.23399,5.19304 -0.0413,7.50875 -0.0413,7.50876 -1.57918,4.34425 -1.57918,4.34425 -4.93998,6.15575 c -2.717,3.38566 -9.29733,10.43075 -14.62298,15.65575 -5.32564,5.225 -12.35773,12.82355 -15.62687,16.88567 l -5.94388,7.38566 -3.30939,6.61434 -3.30939,6.61433 -1.71254,6.5 -1.71254,6.5 -0.5602,14.25 -0.5602,14.25 18.13788,0 z m 18.96155,-118.25616 0.32368,-1.80677 -1.82368,-3.11401 c -1.00302,-1.7127 -2.9835,-3.97841 -4.40106,-5.03491 l -2.5774,-1.92091 -3.9226,-0.89467 -3.92261,-0.89466 -3.5912,0.95683 -3.59119,0.95683 -1.70389,1.88277 -1.70389,1.88277 4.29509,2.4926 4.29508,2.49259 7,2.09562 c 3.85,1.1526 7.9,2.23447 9,2.40416 l 2,0.30853 0.32367,-1.80677 z m 74.95957,-14.74523 c 0.15579,7.7e-4 2.63079,-1.18513 5.5,-2.63533 l 5.21676,-2.63671 3.13856,-3.31633 c 1.72621,-1.82398 5.73831,-5.13746 8.91579,-7.36328 l 5.77722,-4.04696 7.3138,0 c 4.02259,0 13.96049,0.43148 22.08421,0.95885 8.12373,0.52737 18.54034,1.16376 23.14802,1.41419 l 8.37759,0.45533 -0.60949,-5.1858 -0.60949,-5.18579 -2.39602,-6.97839 c -1.31781,-3.83811 -3.55877,-9.58303 -4.97992,-12.76647 -1.42114,-3.18344 -5.13516,-9.70844 -8.25339,-14.5 l -5.66949,-8.71192 -8.61869,-8.84791 c -4.74029,-4.86634 -11.94107,-11.53053 -16.00174,-14.8093 -4.06068,-3.27877 -10.6427,-8.16099 -14.62672,-10.84938 -3.98402,-2.68839 -11.46165,-7.13873 -16.61696,-9.88964 -5.1553,-2.75092 -14.05941,-6.85655 -19.7869,-9.12363 l -10.41362,-4.12196 -13.08638,-3.35243 c -7.19751,-1.84384 -18.03638,-4.12005 -24.08638,-5.05826 l -11,-1.70582 -20,-0.0145 -20,-0.0145 -11,1.69986 c -6.05,0.93492 -15.7087,2.84618 -21.46377,4.24724 -5.75508,1.40106 -14.30508,3.89867 -19,5.55025 -4.69493,1.65157 -13.03623,5.12514 -18.53623,7.71903 -5.5,2.5939 -13.73997,7.04093 -18.31105,9.8823 -4.57107,2.84137 -12.71584,8.54248 -18.09947,12.66913 l -9.78843,7.50301 -8.65057,8.97359 -8.65056,8.97359 -2.99996,4.73045 c -1.649983,2.60174 -2.999963,5.02938 -2.999963,5.39476 l 0,0.66431 5.750003,0.70198 c 3.1625,0.38609 9.125,1.07649 13.25,1.53422 4.125,0.45773 10.875,1.37566 15,2.03983 4.125,0.66417 11.775,2.08577 17,3.15909 5.225,1.07333 12.425,2.5469 16,3.2746 3.575,0.7277 9.73756,1.89614 13.69458,2.59654 l 7.19457,1.27344 10.30543,-6.9533 10.30542,-6.95329 7.98997,-3.32549 7.98997,-3.32549 9.51003,-1.97145 9.51003,-1.97145 14.5,0.50861 14.5,0.50862 7.97012,2.1631 7.97013,2.16309 7.15177,3.30432 c 3.93347,1.81738 9.88112,5.1578 13.21701,7.42315 3.33588,2.26536 8.82846,6.67708 12.20572,9.80383 l 6.14047,5.68499 4.32781,6.07044 c 2.3803,3.33874 5.90682,9.22043 7.83671,13.07043 1.9299,3.85 4.33496,9.81188 5.34458,13.24861 1.00962,3.43674 1.96314,6.24924 2.11892,6.25 z"
         id="path3019" />
      <path
         style="fill:#fcb76c"
         d="m 152.64285,1045.5561 -27,0.3864 -10.5,-0.9246 c -5.775,-0.5085 -15.865613,-1.832 -22.423576,-2.9412 -6.557965,-1.1091 -13.741652,-2.5062 -15.963747,-3.1045 l -4.040175,-1.0879 -3.703308,-3.7033 -3.703309,-3.7033 -0.694235,-3.7006 -0.694235,-3.7006 0.660615,-3.5214 0.660615,-3.5214 2.946074,-3.3554 2.946074,-3.3554 2.754602,-1.0327 c 1.515031,-0.568 6.798213,-1.7926 11.740403,-2.7213 l 8.985802,-1.6886 8.83954,-2.9615 c 4.86174,-1.6288 12.2003,-4.49303 16.30789,-6.36492 4.1076,-1.87189 8.7987,-4.35072 10.42467,-5.50851 1.62596,-1.15779 2.9563,-2.43094 2.9563,-2.82921 0,-0.39827 -2.95601,-2.45332 -6.5689,-4.56677 -3.6129,-2.11346 -10.9254,-6.99101 -16.25,-10.839 -5.32461,-3.84799 -14.101802,-10.83824 -19.504878,-15.53388 l -9.823776,-8.53753 -8.44571,-9.35119 C 67.904445,932.24464 60.730109,923.50335 56.606617,917.9627 52.483126,912.42205 46.853994,904.07037 44.097436,899.40342 41.340877,894.73647 37.354423,887.4662 35.238648,883.24727 33.122872,879.02833 29.285011,870.23933 26.710066,863.71615 l -4.681718,-11.86032 -3.356836,-13.13968 -3.356835,-13.13967 -1.787345,-11.5 -1.787345,-11.5 -0.0094,-21 -0.0094,-21 1.780113,-11.5 c 0.979062,-6.325 2.62939,-15.1461 3.667394,-19.60245 1.038004,-4.45636 3.289571,-12.48012 5.003482,-17.8306 1.713911,-5.35048 5.109146,-14.485 7.544968,-20.29893 2.435821,-5.81393 6.454008,-14.28614 8.929305,-18.82713 2.475297,-4.541 7.568949,-12.91037 11.319228,-18.59862 3.750287,-5.68825 10.192773,-14.39227 14.316643,-19.34227 4.12387,-4.95 12.192027,-13.60246 17.929237,-19.22769 5.737209,-5.62523 13.58129,-12.74569 17.43129,-15.82325 3.850003,-3.07756 12.112973,-9.02128 18.362153,-13.20826 l 11.36214,-7.6127 14.13786,-7.12584 14.13785,-7.12583 10,-3.61848 c 5.5,-1.99016 13.825,-4.76704 18.5,-6.17083 4.675,-1.4038 12.775,-3.44168 18,-4.52861 5.225,-1.08694 14.81055,-2.66976 21.30122,-3.51738 l 11.80121,-1.54113 20.39757,0 20.39757,0 11.80121,1.54347 c 6.49067,0.84891 16.30122,2.46559 21.80122,3.59263 l 10,2.04916 16.5,5.41746 16.5,5.41746 15,7.41278 15,7.41278 12,7.99114 c 6.6,4.39512 15.6,10.90622 20,14.4691 l 8,6.47797 12.5852,12.85802 12.5852,12.85803 8.06925,10.88215 c 4.43808,5.98519 10.90424,15.64138 14.36922,21.4582 l 6.29998,10.57603 4.69887,10.54181 c 2.58437,5.798 6.27565,15.07797 8.20283,20.62216 1.92719,5.5442 4.64542,14.7692 6.04052,20.5 1.3951,5.73081 3.25216,15.30563 4.1268,21.27739 l 1.59026,10.85774 0.6011,14.14226 0.6011,14.14226 -1.19083,15.44107 -1.19084,15.44107 -1.92419,11.05893 c -1.0583,6.08241 -2.86045,14.65893 -4.00476,19.05893 -1.14432,4.4 -3.43705,12.05 -5.09497,17 l -3.01439,9 -6.39559,13.30127 -6.39558,13.30127 -5.65628,8.69873 c -3.11095,4.7843 -8.70073,12.52539 -12.42174,17.20243 l -6.76547,8.5037 -12.35784,12.01179 -12.35785,12.01179 -11.66536,8.75043 -11.66537,8.75043 -13.33463,8.09237 -13.33464,8.09237 -20.76428,10.29874 -20.76427,10.2988 -14.23573,4.6746 -14.23572,4.6746 -16,3.8758 c -8.8,2.1316 -24.325,5.44 -34.5,7.3518 -10.175,1.9119 -24.8,4.4045 -32.5,5.5392 -7.7,1.1346 -20.525,2.7605 -28.5,3.613 l -14.5,1.55 -27,0.3865 z m 16.25,-32.8494 c 7.5625,-0.3707 19.825,-1.3548 27.25,-2.187 7.425,-0.8322 20.475,-2.6268 29,-3.9881 8.525,-1.3613 22.475,-3.8505 31,-5.5317 8.525,-1.68111 20.9,-4.39659 27.5,-6.03437 6.6,-1.63778 17.175,-4.64175 23.5,-6.67548 l 11.5,-3.69769 16.58381,-8.13521 c 9.1211,-4.47436 20.3711,-10.29642 25,-12.93791 4.62891,-2.64148 13.66999,-8.33805 20.09129,-12.65903 l 11.6751,-7.85633 6.82162,-6.33696 6.82162,-6.33696 -1.35337,-3.87674 c -0.74435,-2.13221 -3.33562,-7.85518 -5.75837,-12.71773 l -4.40501,-8.84098 -6.97091,-10.24095 c -3.834,-5.63253 -10.05856,-13.80408 -13.83234,-18.15902 -3.77379,-4.35493 -9.74413,-10.41035 -13.26743,-13.45647 -3.52331,-3.04613 -8.31851,-7.02145 -10.65601,-8.83403 -2.3375,-1.81259 -4.25,-3.61827 -4.25,-4.01263 0,-0.39435 3.70559,-2.94404 8.23465,-5.66597 4.52906,-2.72193 11.72286,-7.56534 15.98623,-10.76314 4.26336,-3.19779 8.13632,-6.50169 8.60657,-7.34198 l 0.85501,-1.5278 -2.92905,-7.65802 c -1.61098,-4.21191 -3.56453,-9.13579 -4.34123,-10.94195 -0.7767,-1.80616 -1.41218,-4.18449 -1.41218,-5.28518 0,-1.10069 -0.63054,-2.99792 -1.40121,-4.21607 l -1.4012,-2.21482 -2.71291,-11 c -1.49209,-6.05 -2.89424,-12.575 -3.11589,-14.5 -0.22164,-1.925 -0.63557,-5.525 -0.91983,-8 -0.28426,-2.475 -0.48692,-4.95 -0.45034,-5.5 0.0366,-0.55 0.20137,-3.92606 0.36622,-7.50235 l 0.29971,-6.50234 1.13254,-2.11617 1.13254,-2.11617 -0.58835,-0.58836 -0.58836,-0.58835 0.77723,-1.79313 c 0.42747,-0.98622 0.679,-2.58521 0.55896,-3.5533 l -0.21827,-1.76017 2.06458,-2.62469 2.06458,-2.62469 0,-2.38965 0,-2.38965 4,-6.33355 c 2.2,-3.48346 4,-6.63208 4,-6.99693 0,-0.36486 1.21878,-2.56623 2.70841,-4.89194 1.48962,-2.32571 2.86153,-4.43797 3.04868,-4.69391 0.18715,-0.25594 2.55534,-0.36897 5.26264,-0.25117 2.70731,0.11779 10.6729,1.12748 17.70132,2.24373 7.02842,1.11626 15.47895,2.65217 18.77895,3.41313 3.3,0.76096 7.6875,1.66858 9.75,2.01693 l 3.75,0.63336 0,-4.08748 c 0,-2.2481 -0.71135,-7.556 -1.58079,-11.79531 l -1.58078,-7.70784 -3.9012,-10 -3.90119,-10 -3.76802,-6.42591 -3.76802,-6.42591 -11.42068,-11.88023 -11.42069,-11.88023 -7.46236,-6.00316 c -4.10429,-3.30174 -10.72201,-8.20276 -14.70603,-10.89115 -3.98402,-2.68839 -11.46165,-7.13873 -16.61696,-9.88964 -5.1553,-2.75092 -14.05941,-6.85655 -19.7869,-9.12363 l -10.41362,-4.12196 -13.08638,-3.35243 c -7.19751,-1.84384 -18.03638,-4.12005 -24.08638,-5.05826 l -11,-1.70582 -20,-0.0145 -20,-0.0145 -11,1.69986 c -6.05,0.93492 -15.7087,2.84618 -21.46377,4.24724 -5.75508,1.40106 -14.30508,3.90161 -19,5.55679 -4.69493,1.65518 -12.69498,4.9511 -17.7779,7.32427 -5.08292,2.37318 -12.98923,6.57849 -17.56957,9.34515 -4.58035,2.76666 -12.7966,8.42861 -18.25833,12.58211 l -9.93043,7.55182 -10.30705,10.24004 -10.30705,10.24005 -4.446053,6.5 -4.446056,6.5 -1.975436,5.20425 -1.975437,5.20424 0.72854,0.40595 c 0.400696,0.22327 3.878539,0.042 7.728539,-0.4029 l 7.000003,-0.80884 20,-0.0534 20,-0.0534 19.38283,2.09817 19.38283,2.09818 2.61717,-2.10287 c 1.43944,-1.15658 5.76717,-4.40814 9.61717,-7.22569 l 7,-5.12281 8.21622,-3.90267 8.21622,-3.90266 7.78378,-2.15744 7.78378,-2.15743 17.5,-0.0527 17.5,-0.0527 8.43317,2.29673 8.43317,2.29673 7.18872,3.32139 c 3.9538,1.82677 9.91808,5.17487 13.25397,7.44022 3.33588,2.26536 8.82846,6.67708 12.20572,9.80383 l 6.14047,5.68499 4.39511,6.15919 4.3951,6.15919 3.51139,7.41124 3.51138,7.41125 2.14374,8 2.14374,8 0.0245,13 0.0245,13 -2.14926,7.89802 -2.14926,7.89803 -4.49206,8.44419 -4.49206,8.44419 -6.40743,8.15779 -6.40743,8.15778 -14.14172,14.37344 -14.14172,14.37344 -1.59977,3.09362 -1.59977,3.09361 -0.50811,8.91147 -0.50811,8.91147 1.64604,0.92116 1.64603,0.92117 0,38.01605 0,38.01605 -1.03518,1.93426 -1.03519,1.93426 -34.9058,0 -34.9058,0 -0.80901,-1.25 -0.80902,-1.25 -0.5,-46 -0.5,-46 0.67558,-9.63936 0.67558,-9.63936 1.66339,-6.86064 1.66339,-6.86064 4.36754,-9 4.36753,-9 4.29349,-5.61771 c 2.36143,-3.08974 10.96779,-12.53974 19.12525,-21 l 14.8317,-15.38233 1.53364,-2.92347 1.53363,-2.92347 0,-4.9335 0,-4.9335 -1.92717,-2.58124 c -1.05995,-1.41969 -3.13083,-3.4799 -4.60195,-4.57825 l -2.67477,-1.99701 -5.76344,-0.39353 -5.76344,-0.39354 -4.5,2.39764 -4.5,2.39763 -3.29426,6.43112 -3.29427,6.43112 -2.41973,11.92828 -2.41973,11.92828 -1.32352,1.32352 -1.32352,1.32352 -17.46249,-2.48175 c -9.60436,-1.36497 -19.3258,-2.73598 -21.60318,-3.04669 l -4.1407,-0.56493 -2.03067,3.29489 c -1.11687,1.81218 -3.46781,6.10738 -5.2243,9.54488 -1.7565,3.4375 -3.55174,6.25 -3.98943,6.25 -0.43768,0 -1.74728,1.96553 -2.91023,4.36785 -1.16294,2.40231 -3.00308,5.17206 -4.0892,6.15498 -1.08612,0.98293 -1.97477,2.32266 -1.97477,2.97717 0,0.65451 -0.9,2.00451 -2,3 -1.1,0.99549 -2,2.24028 -2,2.76621 0,0.52592 -1.73419,3.04368 -3.85375,5.59501 -2.11956,2.55133 -4.43529,5.7445 -5.14605,7.09594 -0.71077,1.35143 -3.70158,5.71498 -6.64625,9.69677 -2.94467,3.98179 -5.35395,7.65847 -5.35395,8.1704 0,0.51193 -0.675,1.49098 -1.5,2.17567 -0.825,0.68469 -1.5,1.82627 -1.5,2.53685 l 0,1.29195 9.25,7.69875 c 5.0875,4.2343 9.37082,8.01028 9.51849,8.39106 l 0.26849,0.69233 -3.76849,2.1193 c -2.07267,1.16562 -7.59349,4.96473 -12.26849,8.44248 -4.675,3.47774 -11.80277,9.45706 -15.83949,13.28736 -4.03672,3.83031 -10.06979,10.35623 -13.40683,14.50206 -3.33704,4.14582 -8.54209,11.25454 -11.566793,15.79714 l -5.49946,8.25929 1.042428,2.24071 c 0.573336,1.2324 4.026447,5.72175 7.673585,9.97635 l 6.63115,7.73563 9.2327,8.06617 9.23271,8.06618 11,7.37211 11,7.37212 11,5.73089 c 6.05,3.152 12.05526,6.67373 13.34501,7.82609 1.28976,1.15235 2.97726,3.31033 3.75,4.79552 l 1.40499,2.70034 0,4.0895 0,4.0895 -1.90295,3.71016 c -1.04663,2.04059 -4.88172,7.1939 -8.52242,11.45178 -3.64071,4.2579 -7.73439,8.4722 -9.09705,9.365 l -2.47758,1.6234 0,1.0371 0,1.0371 13.75,-0.674 z m 84,-103.85908 19.75,-0.27114 0,-22.5 0,-22.5 -19.75,-0.27114 -19.75,-0.27114 0,23.04228 0,23.04228 19.75,-0.27114 z m -1.88788,-63.77114 18.13788,0 0.0258,-1.75 c 0.0142,-0.9625 0.45819,-6.19645 0.98667,-11.631 l 0.96086,-9.881 2.4047,-5.25254 2.40469,-5.25254 12.01741,-12.56485 c 6.60957,-6.91067 14.82731,-15.82963 18.26163,-19.8199 3.43433,-3.99028 8.33616,-10.45956 10.89295,-14.37617 l 4.64872,-7.12113 2.36572,-6.92543 2.36572,-6.92544 0.43955,-11.22032 0.43955,-11.22032 -1.6834,-7.56656 -1.6834,-7.56655 -4.10297,-8.19749 -4.10298,-8.1975 -8.57061,-8.51563 -8.57061,-8.51563 -5.6654,-3.32079 -5.66539,-3.32078 -6.83461,-2.37176 c -3.75903,-1.30447 -9.7596,-2.84422 -13.3346,-3.42166 l -6.5,-1.0499 -8.16203,-0.008 -8.16203,-0.008 -7.33797,1.41185 c -4.03588,0.77652 -9.94962,2.39288 -13.14164,3.59193 l -5.80367,2.18008 -7.39961,4.94916 -7.39962,4.94917 -5.61971,6.2089 -5.61971,6.20891 -4.83217,9.6511 -4.83217,9.65109 -2.18383,9.45055 -2.18382,9.45055 0.33899,2.37902 0.33899,2.37901 14.5,2.20714 c 7.975,1.21392 15.90946,2.23512 17.63214,2.26934 l 3.13215,0.0622 2.70169,-8.75 2.70169,-8.75 2.48161,-4.28974 c 1.36488,-2.35935 3.89562,-5.90021 5.62386,-7.86857 1.72824,-1.96835 4.7953,-4.62235 6.8157,-5.89777 l 3.67344,-2.31894 5.81917,-1.69168 5.81916,-1.69168 7.21702,0.54582 7.21701,0.54582 4.58344,2.02748 4.58344,2.02747 5.39683,5.1041 5.39684,5.1041 2.23398,5.19304 2.23399,5.19304 -0.0413,7.50875 -0.0413,7.50876 -1.57918,4.34425 -1.57918,4.34425 -4.93998,6.15575 c -2.717,3.38566 -9.29733,10.43075 -14.62298,15.65575 -5.32564,5.225 -12.35773,12.82355 -15.62687,16.88567 l -5.94388,7.38566 -3.30939,6.61434 -3.30939,6.61433 -1.71254,6.5 -1.71254,6.5 -0.5602,14.25 -0.5602,14.25 18.13788,0 z"
         id="path3017" />
      <path
         style="fill:#fdb34e"
         d="m 144.64285,1044.9034 c -13.75,-0.09 -26.8,-0.3255 -29,-0.5239 -2.2,-0.1984 -9.17823,-1.0132 -15.50719,-1.8107 l -11.507187,-1.4499 -7.937933,-2.0302 -7.937933,-2.0302 -2.399894,-2.241 c -1.319942,-1.2326 -3.081757,-3.5521 -3.915146,-5.1546 l -1.515251,-2.9136 0.444373,-5.3585 0.444373,-5.3586 2.915893,-3.0639 c 1.60374,-1.6852 3.593681,-3.4323 4.42209,-3.8826 0.828408,-0.4502 5.579694,-1.5216 10.558412,-2.3808 l 9.052215,-1.5621 9.441588,-3.0807 9.44159,-3.08065 10,-4.78072 10,-4.78072 1.49309,-1.81713 1.49309,-1.81714 -1.87816,-1.10463 c -1.03298,-0.60755 -7.77988,-4.9879 -14.99309,-9.73411 l -13.11493,-8.62949 -11.000003,-9.43081 -11,-9.43082 -7.352177,-7.9397 c -4.043697,-4.36683 -10.17058,-11.5397 -13.615295,-15.9397 -3.444715,-4.4 -8.510681,-11.375 -11.257703,-15.5 -2.747021,-4.125 -7.091609,-11.2127 -9.65464,-15.75045 -2.56303,-4.53774 -6.494356,-12.41274 -8.73628,-17.5 -2.241924,-5.08725 -5.334377,-12.69008 -6.872117,-16.89517 -1.537741,-4.20509 -4.178738,-12.98009 -5.868882,-19.5 -1.690143,-6.51991 -3.798742,-16.12938 -4.685775,-21.35438 l -1.612786,-9.5 -0.553734,-19.52623 -0.553734,-19.52624 1.187726,-10.47376 c 0.65325,-5.76058 2.292878,-16.00021 3.643618,-22.75475 l 2.455892,-12.28097 4.510765,-13.71903 4.510765,-13.71902 7.365092,-15 7.365091,-15 7.862087,-11.70313 7.862087,-11.70313 9.5,-11.19428 9.5,-11.19427 10,-9.01948 c 5.5,-4.96072 14.459863,-12.34934 19.910803,-16.41917 5.45095,-4.06983 14.45095,-10.10155 20,-13.40384 5.54906,-3.30228 14.5892,-8.15987 20.0892,-10.79466 5.5,-2.63478 13.825,-6.25961 18.5,-8.05518 4.675,-1.79556 13.48838,-4.73978 19.58528,-6.5427 6.09691,-1.80292 15.77191,-4.20792 21.5,-5.34443 5.7281,-1.13652 14.46472,-2.63377 19.41472,-3.32722 l 9,-1.26082 22,0.005 22,0.005 9.5,1.31341 c 5.225,0.72238 14.77209,2.4126 21.21577,3.75604 l 11.71576,2.44262 12.76425,4.08065 c 7.02034,2.24436 17.86893,6.271 24.10798,8.94809 6.23904,2.67708 15.47303,7.17643 20.51998,9.99855 5.04694,2.82212 13.45126,7.97379 18.67626,11.44816 5.225,3.47438 13.3229,9.38783 17.99534,13.14101 4.67243,3.75319 12.99743,11.32607 18.5,16.82863 5.50256,5.50257 13.0794,13.82757 16.83741,18.5 3.75801,4.67244 9.99001,13.22034 13.84889,18.99534 l 7.01614,10.5 7.37829,15 7.37829,15 4.51076,13.71902 4.51077,13.71903 2.45589,12.28097 c 1.35074,6.75454 2.99122,17.00147 3.6455,22.77096 l 1.18961,10.48998 -0.5732,21.51002 -0.5732,21.51002 -1.51087,10 c -0.83099,5.5 -2.2169,13.375 -3.07982,17.5 -0.86292,4.125 -2.74284,11.55 -4.17761,16.5 -1.43477,4.95 -4.39013,13.5 -6.56746,19 -2.17733,5.5 -6.01218,13.9801 -8.52189,18.84467 -2.50971,4.86456 -7.39827,13.08517 -10.86347,18.26802 -3.4652,5.18285 -9.13225,12.90275 -12.59345,17.15534 -3.46119,4.25258 -10.3046,11.72271 -15.20757,16.60028 -4.90296,4.87757 -13.45585,12.49766 -19.00642,16.93353 -5.55056,4.43587 -16.16693,12.05577 -23.59193,16.93312 l -13.5,8.8679 -25.5,12.78417 -25.5,12.7842 -14.5,4.6585 c -7.975,2.5622 -21.925,6.4462 -31,8.6312 -9.075,2.185 -25.05,5.5347 -35.5,7.4437 -10.45,1.9091 -25.75,4.4161 -34,5.571 -8.25,1.155 -22.425,2.7557 -31.5,3.5571 l -16.5,1.4572 -25,-0.163 z m 24.25,-32.2052 c 7.5625,-0.3754 20.05,-1.3684 27.75,-2.2066 7.7,-0.8383 24.50163,-3.2971 37.33696,-5.464 12.83533,-2.167 29.48533,-5.32826 37,-7.02512 7.51467,-1.69687 19.06304,-4.61788 25.66304,-6.49115 6.6,-1.87326 15.41819,-4.72472 19.59598,-6.33656 4.1778,-1.61184 14.0778,-6.17453 22,-10.13931 7.92221,-3.96477 18.00402,-9.25849 22.40402,-11.7638 4.4,-2.50532 13.2538,-8.09047 19.6751,-12.41145 l 11.6751,-7.85633 6.82162,-6.33696 6.82162,-6.33696 -1.35337,-3.87674 c -0.74435,-2.13221 -3.33562,-7.85518 -5.75837,-12.71773 l -4.40501,-8.84098 -6.97091,-10.24095 c -3.834,-5.63253 -10.05856,-13.80408 -13.83234,-18.15902 -3.77379,-4.35493 -9.74413,-10.41035 -13.26743,-13.45647 -3.52331,-3.04613 -8.31851,-7.02145 -10.65601,-8.83403 -2.3375,-1.81259 -4.24947,-3.59531 -4.24883,-3.96159 6.5e-4,-0.36628 5.43243,-4.04097 12.07063,-8.16597 6.63819,-4.125 15.52516,-10.08446 19.74882,-13.24325 l 7.67938,-5.74326 9.32528,-9.25674 9.32528,-9.25675 5.47883,-7.24735 5.47883,-7.24736 2.5426,-5.25264 c 1.39842,-2.88896 3.59221,-7.05265 4.87508,-9.25265 1.28287,-2.2 3.70675,-6.71996 5.3864,-10.04435 1.67966,-3.3244 3.92404,-8.5734 4.98751,-11.66445 1.06348,-3.09106 2.75219,-9.3711 3.75269,-13.95565 l 1.81909,-8.33555 0.003,-18 0.003,-18 -2.64976,-9.5 -2.64976,-9.5 -4.01755,-9.25866 -4.01756,-9.25867 -4.78895,-7.20361 -4.78896,-7.20362 -9.99789,-10.38017 -9.9979,-10.38017 -7.53418,-6.07656 c -4.1447,-3.34211 -11.58508,-8.74813 -16.53508,-12.01339 l -9,-5.93683 -11.17627,-5.42564 -11.17627,-5.42565 -13.32373,-4.36933 -13.32373,-4.36933 -10.5,-2.08547 c -5.775,-1.14701 -14.92542,-2.59607 -20.33427,-3.22014 l -9.83427,-1.13466 -21.16573,0.50727 -21.16573,0.50727 -11.5,2.15871 c -6.325,1.18729 -16.14237,3.49437 -21.81638,5.12684 -5.67401,1.63247 -13.85393,4.33235 -18.17759,5.99973 -4.32367,1.66738 -12.23059,5.25619 -17.57094,7.97513 -5.34035,2.71893 -14.03543,7.83924 -19.32241,11.37846 l -9.61268,6.43495 -9.20902,8.0705 -9.20902,8.0705 -7.79098,9.01467 -7.790983,9.01468 -4.69859,8.11088 -4.698591,8.11089 -2.960157,8.18079 c -1.628086,4.49944 -3.26342,10.2031 -3.634076,12.67481 l -0.673918,4.49401 15.332666,1.25969 15.332669,1.25969 0.73624,0.73246 c 0.40493,0.40285 1.61695,4.09114 2.69337,8.19621 1.07643,4.10507 2.62098,9.71376 3.43234,12.46376 0.81137,2.75 2.44168,8.375 3.62292,12.5 1.18124,4.125 3.0339,10.8 4.11701,14.83333 l 1.96931,7.33333 -0.0869,3.66667 c -0.0478,2.01667 0.36961,6.36667 0.92754,9.66667 0.55794,3.3 1.7151,9.6 2.57148,14 l 1.55706,8 0.0153,6 c 0.008,3.3 -0.0866,7.8 -0.21133,10 -0.12467,2.2 -0.0821,8.275 0.0947,13.5 0.17676,5.225 0.52038,10.29471 0.76361,11.26602 l 0.44224,1.76603 9.67752,8.11453 c 5.32264,4.463 9.79835,8.41824 9.94602,8.78945 0.14767,0.3712 -1.42733,1.62859 -3.5,2.79421 -2.07267,1.16562 -7.59349,4.96473 -12.26849,8.44248 -4.675,3.47774 -11.80277,9.45706 -15.83949,13.28736 -4.03672,3.83031 -10.06979,10.35623 -13.40683,14.50206 -3.33704,4.14582 -8.54209,11.25454 -11.566793,15.79714 l -5.49946,8.25929 1.042428,2.24071 c 0.573336,1.2324 4.026447,5.72175 7.673585,9.97635 l 6.63115,7.73563 9.2327,8.06617 9.23271,8.06618 11,7.37211 11,7.37212 11,5.73089 c 6.05,3.152 12.05526,6.67373 13.34501,7.82609 1.28976,1.15235 2.97726,3.31033 3.75,4.79552 l 1.40499,2.70034 0,4.0895 0,4.0895 -1.90295,3.71016 c -1.04663,2.04059 -4.88172,7.1939 -8.52242,11.45178 -3.64071,4.2579 -7.73439,8.4722 -9.09705,9.365 l -2.47752,1.6234 0,1.0371 0,1.0371 13.75,-0.6825 z m 84.18343,-86.62172 -34.9962,0 -0.71861,-1.75 -0.71862,-1.75 0,-53 0,-53 1.84849,-8 1.8485,-8 3.88046,-8.34352 3.88046,-8.34352 4.72492,-6.62138 4.72492,-6.62138 16.17617,-16.65661 16.17617,-16.65661 1.23136,-3.73107 1.23136,-3.73106 -0.65784,-4.11392 -0.65784,-4.11391 -2.39712,-3.14278 -2.39712,-3.14279 -3.45757,-1.64072 -3.45758,-1.64073 -5.13099,0 -5.13099,0 -3.2335,1.35104 -3.23351,1.35105 -3.13186,3.56699 -3.13186,3.567 -2.04294,5.46024 -2.04294,5.46024 -2.0903,10.83169 -2.0903,10.83169 -1.21927,0.7672 -1.21928,0.7672 -1.5,-0.43762 c -0.825,-0.24069 -14.775,-2.27204 -31,-4.51413 -16.225,-2.24208 -30.5125,-4.29345 -31.75,-4.5586 l -2.25,-0.48209 0.0183,-4.23095 c 0.0101,-2.32702 0.66906,-8.73095 1.46441,-14.23095 0.79535,-5.5 2.14871,-12.65403 3.00748,-15.89785 0.85877,-3.24382 2.84298,-9.09382 4.40935,-13 1.56638,-3.90618 4.30293,-9.57715 6.08124,-12.60215 1.7783,-3.025 5.64039,-8.48909 8.58243,-12.14243 l 5.34915,-6.64243 8.04675,-6.06341 8.04674,-6.0634 7.36882,-3.49681 7.36882,-3.49681 7.87824,-2.16088 7.87825,-2.16089 14.5,-0.48105 14.5,-0.48105 9.51003,1.96574 9.51003,1.96574 7.71003,3.20969 7.71003,3.2097 5.81715,3.7598 c 3.19944,2.0679 8.2443,5.91546 11.21082,8.55015 2.96651,2.63468 7.56778,7.31888 10.22504,10.40934 l 4.83138,5.619 4.93957,10 4.93956,10 1.62731,6 1.6273,6 0.53063,13 0.53064,13 -2.14078,8.95956 -2.14077,8.95955 -3.4574,7.18822 -3.4574,7.18823 -5.92723,7.99405 c -3.25997,4.39673 -8.98546,11.30523 -12.7233,15.35222 -3.73784,4.04699 -10.74668,11.45585 -15.5752,16.46413 l -8.77913,9.10596 -1.50915,3.61192 -1.50916,3.61192 0,8.40968 0,8.40967 1.5,1.24489 1.5,1.24489 0,37.4433 0,37.44329 -1.03518,1.93426 -1.03519,1.93426 -34.9962,0 z m -0.0685,-16.22924 19.63505,-0.27076 0,-23.5 0,-23.5 -19.42725,-0.27221 -19.42726,-0.27222 -0.80743,1.27222 -0.80743,1.27221 -0.0153,21.16821 -0.0153,21.16822 0.61495,1.60254 0.61496,1.60254 19.63504,-0.27075 z m -1.49948,-63.99865 18.13453,-0.27211 0.71259,-9.5 c 0.39193,-5.225 1.20412,-11.525 1.80487,-14 l 1.09228,-4.5 3.30129,-5 3.3013,-5 13.89384,-14.5001 c 7.6416,-7.97506 16.10246,-17.37082 18.8019,-20.87947 l 4.90808,-6.37937 3.74327,-7.2337 3.74328,-7.2337 1.73419,-7.79489 1.7342,-7.79489 -0.52756,-10.09194 -0.52756,-10.09194 -2.81516,-8.47598 -2.81517,-8.47599 -4.81833,-7.204 -4.81833,-7.204 -6.97763,-6.46021 -6.97763,-6.46022 -7.96014,-4.14132 -7.96014,-4.14132 -7.78672,-2.08526 -7.78672,-2.08526 -13.5,-0.0216 -13.5,-0.0216 -7.78672,2.1069 -7.78672,2.1069 -7.71328,4.02582 -7.71328,4.02582 -6.20321,5.5439 -6.20321,5.54391 -4.95143,7.40299 -4.95143,7.403 -3.00251,7.8088 -3.00251,7.8088 -1.74016,8.80269 -1.74016,8.80269 0.99263,0.99263 0.99263,0.99263 16.73481,2.53092 16.73481,2.53092 1.24476,-0.47766 1.24477,-0.47766 1.83783,-6.78949 1.83783,-6.78949 3.37874,-6.7537 3.37873,-6.7537 5.00691,-4.50164 5.00691,-4.50164 5.70163,-2.1486 5.70163,-2.14861 9,0.42164 9,0.42164 4.79171,2.30295 4.79171,2.30294 4.25572,4.13609 4.25572,4.13609 2.45257,4.98418 2.45257,4.98418 0,8.5 0,8.5 -2.8548,5.81388 -2.85481,5.81389 -16.30331,16.85568 -16.30331,16.85568 -3.94735,5.83043 c -2.17105,3.20674 -4.65231,7.20275 -5.51392,8.88001 -0.86161,1.67726 -2.48828,5.95226 -3.61482,9.5 l -2.04825,6.45043 -1.02971,8.47377 c -0.56635,4.66049 -1.02972,11.48618 -1.02972,15.16813 0,3.68194 0.27696,7.4162 0.61547,8.29834 l 0.61548,1.6039 18.13452,-0.27211 z"
         id="path3015" />
      <path
         style="fill:#fb9924"
         d="m 153.14285,1044.543 -26.5,0.4005 -11,-0.9168 c -6.05,-0.5042 -16.400003,-1.8298 -23.000003,-2.9458 -6.6,-1.1159 -14.143772,-2.7367 -16.763939,-3.6017 l -4.763938,-1.5727 -2.736062,-3.5872 -2.736061,-3.5871 0,-5.7546 0,-5.7545 2.081021,-2.8233 2.081021,-2.8233 3.418979,-1.6917 3.418979,-1.6917 9,-1.6194 9,-1.6194 9.446613,-3.1304 9.4466,-3.13038 10.0534,-5.05852 10.05339,-5.05852 0,-1.86603 0,-1.86604 -9.5,-5.9649 c -5.225,-3.28069 -13.775,-9.16388 -19,-13.07374 l -9.500003,-7.10884 -11.392619,-11.06022 c -6.265941,-6.08313 -14.784097,-15.11023 -18.929237,-20.06023 -4.145139,-4.95 -10.605027,-13.65402 -14.355306,-19.34227 -3.750279,-5.68825 -8.867433,-14.10074 -11.371454,-18.69443 -2.50402,-4.59368 -6.295183,-12.3695 -8.424805,-17.27959 -2.129622,-4.91009 -5.289347,-13.1476 -7.021611,-18.30557 -1.732264,-5.15798 -4.237355,-13.8785 -5.566869,-19.37894 -1.329514,-5.50044 -3.097853,-14.72544 -3.929642,-20.5 l -1.512344,-10.4992 -0.62408,-14 -0.624079,-14 1.18522,-13 1.18522,-13 2.525287,-13 2.525287,-13 4.291163,-13 c 2.36014,-7.15 6.334089,-17.5307 8.830999,-23.06822 2.49691,-5.53752 7.11116,-14.53752 10.25389,-20 3.142729,-5.46248 8.239608,-13.53178 11.326398,-17.93178 3.086789,-4.4 8.850809,-11.86177 12.808934,-16.58171 3.958124,-4.71995 12.090301,-13.26995 18.071505,-19 l 10.874915,-10.41829 9.758021,-7.36399 c 5.36692,-4.0502 14.40985,-10.21204 20.09541,-13.69299 5.68557,-3.48094 13.86593,-8.09717 18.1786,-10.25828 4.31266,-2.16112 13.09133,-6.02433 19.50815,-8.58491 6.41682,-2.56058 15.41682,-5.7893 20,-7.17493 4.58318,-1.38562 13.30089,-3.60426 19.3727,-4.9303 6.07181,-1.32604 16.33236,-3.1048 22.80122,-3.95279 l 11.76156,-1.54181 20.39757,0 20.39757,0 11.80121,1.53716 c 6.49067,0.84545 16.97622,2.68637 23.30122,4.09094 6.325,1.40458 16.44247,4.14433 22.48326,6.08833 6.0408,1.94401 16.25464,5.76082 22.69743,8.4818 l 11.71417,4.94723 12.30257,7.03407 c 6.76641,3.86874 15.22757,9.09207 18.80257,11.6074 3.575,2.51533 11,8.27636 16.5,12.80228 5.5,4.52593 13.87602,12.20737 18.61338,17.06987 4.73736,4.86251 11.0441,11.76592 14.01497,15.34092 2.97088,3.575 7.92407,10.1 11.00709,14.5 3.08302,4.4 8.17681,12.4693 11.31954,17.93178 3.14273,5.46248 7.75698,14.46248 10.25389,20 2.49691,5.53752 6.47086,15.91822 8.831,23.06822 l 4.29116,13 2.52529,13 2.52529,13 1.18604,13 1.18604,13 -0.64747,16.5 -0.64747,16.5 -1.40087,10.52956 c -0.77048,5.79126 -2.60516,15.91626 -4.07707,22.5 -1.47191,6.58374 -4.24654,16.69544 -6.16584,22.47044 l -3.48965,10.5 -5.73712,12 c -3.15542,6.6 -8.25737,16.05 -11.33766,21 l -5.60053,9 -8.43799,10.5 -8.43799,10.5 -10.09862,9.68878 c -5.55424,5.32882 -14.2784,12.93775 -19.38702,16.90871 -5.10861,3.97097 -14.23839,10.45353 -20.28839,14.40568 -6.05,3.95215 -15.95,9.90149 -22,13.22076 -6.05,3.31926 -17.975,9.43339 -26.5,13.58689 l -15.5,7.5518 -13.5,4.4914 -13.5,4.4914 -16.5,4.0447 c -9.075,2.2245 -24.825,5.6092 -35,7.5216 -10.175,1.9123 -24.8,4.3884 -32.5,5.5025 -7.7,1.1141 -20.525,2.729 -28.5,3.5887 l -14.5,1.5631 -26.5,0.4005 z m 12.75,-30.9261 c 6.4625,-0.3613 18.725,-1.3408 27.25,-2.1766 l 15.5,-1.5197 20.68923,-3.4081 c 11.37908,-1.8744 27.12908,-4.7716 35,-6.4383 7.87092,-1.66662 20.24768,-4.5906 27.5039,-6.49771 l 13.19314,-3.46746 10.73448,-4.03205 10.73448,-4.03206 18.07238,-9.29505 c 9.93982,-5.11228 22.72048,-12.19268 28.40148,-15.73422 5.681,-3.54154 15.10237,-10.01533 20.93639,-14.38619 l 10.60729,-7.94703 11.06362,-11.08626 11.06361,-11.08626 6.5,-9.23662 c 3.575,-5.08014 8.00755,-12.10627 9.85011,-15.61362 l 3.35011,-6.377 -0.62138,-1.95779 c -0.34176,-1.07678 -4.12687,-7.31068 -8.41135,-13.85309 l -7.78997,-11.89531 -7.87524,-9.44726 c -4.33138,-5.19599 -11.67088,-13.16678 -16.31,-17.71286 l -8.43476,-8.2656 0.51557,-1.28714 c 0.28357,-0.70793 4.37886,-6.14376 9.10066,-12.07963 l 8.58508,-10.7925 5.47736,-9.2075 5.47736,-9.20751 4.07566,-10.19545 4.07567,-10.19544 1.90458,-8.80456 1.90459,-8.80455 1.05843,-11.55001 1.05844,-11.55001 -0.98118,-10.29774 -0.98118,-10.29775 -2.04086,-8.65224 c -1.12248,-4.75874 -2.29649,-9.47837 -2.60891,-10.48808 l -0.56805,-1.83582 2.09463,1.12101 2.09463,1.12101 0,-0.96965 c 0,-0.53331 -2.65458,-4.93664 -5.89907,-9.78519 l -5.89906,-8.81553 -9.40528,-11 -9.40528,-11 -8.94565,-8.19802 c -4.92011,-4.50891 -12.32066,-10.73563 -16.44566,-13.83715 -4.125,-3.10152 -11.65891,-8.09905 -16.74202,-11.10562 -5.0831,-3.00656 -13.6331,-7.41081 -19,-9.78722 -5.36689,-2.37641 -14.77017,-5.9387 -20.89619,-7.9162 l -11.1382,-3.59546 -12.3618,-2.52086 -12.36179,-2.52085 -15.75,-1.20985 -15.75,-1.20984 -15.75,1.20984 -15.75,1.20985 -12.36179,2.52085 -12.3618,2.52086 -11.1382,3.59143 c -6.12602,1.97528 -15.41321,5.46875 -20.63821,7.76327 -5.225,2.29451 -13.78208,6.69247 -19.01573,9.77324 l -9.51573,5.6014 -9.48427,7.31206 -9.48427,7.31206 -9.84894,10.01385 -9.84895,10.01385 -6.407309,8.52926 -6.40731,8.52925 -3.142588,7.5 c -1.728424,4.125 -4.188771,11.27881 -5.467439,15.89735 l -2.324851,8.39735 -1.151928,10.60265 -1.151928,10.60265 0.662504,11.90481 0.662504,11.90482 1.880649,9.59518 1.880648,9.59519 3.16534,9 3.16534,9 5.025243,9.47696 c 2.763883,5.21233 6.263312,11.28733 7.776505,13.5 1.51319,2.21267 3.47114,5.42762 4.351,7.14432 l 1.59975,3.12129 -5.70912,4.43578 c -3.140023,2.43968 -9.446034,7.73521 -14.01337,11.76783 l -8.304247,7.33206 -9.504393,11.05917 -9.504393,11.05917 0.633221,2.55171 c 0.348272,1.40344 1.976208,5.92671 3.617635,10.05171 1.641427,4.125 4.825967,10.875 7.076755,15 2.250788,4.125 6.35147,10.875 9.112625,15 2.761156,4.125 7.755554,10.87404 11.098664,14.99786 3.343109,4.12382 9.733203,11.16006 14.200203,15.6361 4.467,4.47603 11.667,10.96409 16,14.41791 4.333,3.45382 11.92818,8.95269 16.87818,12.2197 l 9,5.94004 11.5,5.79604 11.5,5.79604 2.93612,3.09714 2.93611,3.09714 0.43618,6.03006 0.43617,6.03007 -3.74829,5.64534 -3.7483,5.64534 -7.37399,7.37404 c -4.0557,4.0557 -7.374,7.8466 -7.374,8.4242 l 0,1.0503 11.75,-0.6569 z m 87.67926,-88.77783 -35.07074,0.2626 -0.67926,-0.67926 -0.67926,-0.67926 0,-51.20235 0,-51.20234 1.49083,-8.54903 1.49082,-8.54903 2.71456,-7.32348 2.71456,-7.32348 6.0223,-9.00848 6.02231,-9.00848 15.66069,-16.08381 15.66069,-16.0838 1.61162,-3.11654 1.61162,-3.11653 0,-5.31753 0,-5.31752 -2.46339,-3.62521 -2.46339,-3.6252 -4.35234,-2.10693 -4.35233,-2.10693 -4.43427,0.022 -4.43428,0.022 -4,1.84612 -4,1.84612 -2.19222,2.38487 c -1.20572,1.31167 -3.39603,5.01433 -4.86735,8.22812 l -2.67513,5.84326 -2.20296,10.92411 -2.20297,10.92411 -0.92968,0.90864 -0.92969,0.90857 -30.5,-4.42332 c -16.775,-2.43282 -31.57517,-4.67516 -32.88927,-4.98297 l -2.38927,-0.55964 0.66318,-7.95211 c 0.36474,-4.37365 1.31241,-11.66185 2.10591,-16.19599 0.7935,-4.53414 2.38691,-11.16889 3.54089,-14.74389 1.15399,-3.575 3.86929,-10.1 6.034,-14.5 l 3.93584,-8 5.11667,-6.8003 5.11667,-6.8003 7.13269,-6.02158 7.13269,-6.02158 10,-4.94132 10,-4.94131 8,-2.01075 8,-2.01076 10,-0.608 10,-0.608 8.86451,1.18443 8.86451,1.18443 8.13549,2.54888 8.13549,2.54887 6.5,3.39138 c 3.575,1.86525 9.65,5.78928 13.5,8.72005 l 7,5.32868 5.83661,6.92859 5.83661,6.92859 3.58564,6.40411 3.58564,6.40412 2.75918,8.09588 2.75918,8.09589 1.11659,9.58988 1.11659,9.58988 -1.08381,8.72178 -1.08381,8.72179 -2.44054,7.68834 -2.44054,7.68833 -3.93881,6.71568 c -2.16635,3.69362 -6.07836,9.49617 -8.69336,12.89457 -2.61501,3.39839 -10.98824,12.66367 -18.6072,20.58951 l -13.85264,14.41062 -2.6976,4.07635 -2.69761,4.07636 -0.3985,9.9216 -0.3985,9.92161 1.63217,1.19685 1.63217,1.19685 -0.26373,38.5 -0.26373,38.5 -35.07074,0.26259 z m -0.61352,-13.793 17.31574,0.0304 1.93426,-1.03518 1.93426,-1.03518 0,-22.92963 0,-22.92963 -1.93426,-1.03519 -1.93426,-1.03518 -17.13148,0 -17.13148,0 -1.93426,1.03518 -1.93426,1.03519 0,22.91512 0,22.91513 1.75,1.01928 1.75,1.01928 17.31574,0.0304 z m -0.64643,-64.21437 16.6693,-0.25522 0.77106,-0.77369 0.77105,-0.7737 0.7038,-11.49983 0.7038,-11.49984 2.7595,-5.64021 2.7595,-5.64021 12.60255,-13.08626 c 6.9314,-7.19744 14.89445,-15.78626 17.69565,-19.08626 2.80121,-3.3 6.96002,-8.75329 9.24182,-12.11841 2.28179,-3.36513 5.03335,-8.1183 6.11458,-10.5626 1.08123,-2.44429 2.65712,-7.09805 3.50197,-10.34168 l 1.53611,-5.89751 0,-10.12994 0,-10.12993 -1.93186,-7.55349 -1.93185,-7.55349 -2.9597,-5.86312 c -1.62783,-3.22472 -5.0792,-8.68269 -7.66971,-12.12883 l -4.71002,-6.26571 -7.14843,-5.63032 -7.14843,-5.63033 -7,-3.2584 c -3.85,-1.79213 -9.925,-4.06445 -13.5,-5.0496 l -6.5,-1.79119 -14.5,-0.043 -14.5,-0.043 -6.5,1.75038 -6.5,1.75038 -8.14468,3.99115 -8.14468,3.99114 -7.58265,7.08136 -7.58266,7.08137 -4.45309,7.17238 c -2.44919,3.94482 -5.41177,9.621 -6.58349,12.61375 -1.17173,2.99275 -2.99989,9.06775 -4.06258,13.5 -1.06269,4.43225 -1.93531,9.51257 -1.93916,11.28959 l -0.007,3.23095 2.25,0.49769 c 1.2375,0.27373 8.40292,1.4073 15.92316,2.51905 7.52023,1.11175 14.99094,2.02136 16.60157,2.02136 l 2.92842,0 1.7475,-6.4558 c 0.96113,-3.5507 3.08172,-9.27699 4.71242,-12.72511 l 2.96491,-6.2693 3.46216,-4.22511 3.46216,-4.22511 6.70629,-3.29978 6.70629,-3.29979 9.51756,0.0321 9.51755,0.0321 4.67567,2.12875 4.67567,2.12875 4.52628,4.17217 4.52627,4.17218 2.54806,5.11328 2.54805,5.11328 0,8.15443 0,8.15443 -1.13649,3.39923 -1.13648,3.39922 -3.85416,5.1947 c -2.11979,2.85709 -10.49782,12.08209 -18.61784,20.5 l -14.76368,15.3053 -3.84194,5.81449 c -2.11306,3.19797 -4.91685,8.45987 -6.23063,11.69312 l -2.38871,5.87863 -1.51503,8.68787 -1.51504,8.68787 0,10.31932 0,10.31932 1.75,1.05491 1.75,1.0549 16.66931,-0.25521 z"
         id="path3013" />
      <path
         style="fill:none"
         d="m 144.64285,1043.9583 -25,-0.1082 -11.5,-1.2657 c -6.325,-0.6961 -15.550003,-2.0276 -20.500003,-2.9588 l -9,-1.6931 -4.223328,-1.86 -4.223327,-1.86 -2.022935,-3.318 -2.022934,-3.318 -0.0037,-4.6021 -0.0037,-4.6022 2.28733,-3.3978 2.28733,-3.3979 2.608626,-1.2547 c 1.434744,-0.6901 6.592946,-1.9482 11.46267,-2.7957 l 8.853968,-1.541 10.000003,-3.3438 c 5.5,-1.839 13.825,-5.18676 18.5,-7.43934 4.675,-2.25258 9.58274,-4.94474 10.90609,-5.98258 l 2.40609,-1.88698 -0.53357,-1.39046 -0.53356,-1.39046 -10.11982,-6.29873 c -5.5659,-3.4643 -14.95853,-10.06048 -20.87252,-14.65818 L 92.642847,955.23511 79.558815,941.9058 66.474783,928.57648 58.936345,918.42649 c -4.146141,-5.5825 -9.852739,-13.98143 -12.681329,-18.66431 -2.82859,-4.68287 -7.807451,-14.06538 -11.064136,-20.85001 l -5.921244,-12.33569 -3.576227,-10.38365 c -1.966925,-5.711 -4.514339,-14.036 -5.66092,-18.5 -1.146581,-4.46399 -2.957071,-12.84135 -4.023312,-18.61635 l -1.938619,-10.5 -0.599642,-20 -0.599642,-20 1.191951,-10.5 c 0.655573,-5.775 2.308093,-16.08072 3.672266,-22.9016 l 2.480315,-12.40159 4.517922,-13.59841 4.517923,-13.5984 6.829829,-14 6.82983,-14 7.221431,-10.93581 c 3.971787,-6.0147 9.744088,-14.1147 12.827337,-18 3.083249,-3.88531 10.348201,-11.95309 16.144338,-17.92841 l 10.538431,-10.86422 10,-8.06391 c 5.500003,-4.43515 14.725003,-11.18196 20.500003,-14.9929 l 10.5,-6.929 15.65597,-7.76695 15.65597,-7.76695 15.54734,-5.11069 15.54734,-5.11068 12.29669,-2.46701 c 6.76318,-1.35686 16.34669,-3.04273 21.29669,-3.74639 l 9,-1.27939 22,0 22,0 9,1.27939 c 4.95,0.70366 14.54997,2.39287 21.33326,3.75379 l 12.33326,2.47442 15.16674,4.99473 15.16674,4.99473 16,7.86509 16,7.86509 10.5,6.9394 c 5.775,3.81668 15,10.56309 20.5,14.99203 l 10,8.05263 11.24999,11.61924 11.24999,11.61924 7.40271,9.94688 c 4.07149,5.47078 9.88175,13.95453 12.91168,18.85278 3.02994,4.89825 7.34691,12.56138 9.59327,17.02918 2.24637,4.4678 5.92812,12.74937 8.18167,18.40348 2.25356,5.65412 5.58701,15.45521 7.40767,21.78021 l 3.31029,11.5 2.33466,13 2.33465,13 0.0117,26 0.0117,26 -1.27967,9 c -0.70381,4.95 -2.20953,13.725 -3.34602,19.5 l -2.06637,10.5 -4.90189,14.92589 -4.9019,14.92589 -5.45635,11.07411 -5.45635,11.07411 -6.85677,10.5 -6.85678,10.5 -7.51646,9 -7.51646,9 -10.09785,9.58566 -10.09785,9.58566 -10.26864,7.87111 c -5.64776,4.3291 -15.91885,11.42114 -22.82464,15.76008 l -12.556,7.88898 -23.5,11.68183 -23.5,11.6818 -11.29201,3.7794 c -6.21061,2.0786 -19.03561,5.7479 -28.5,8.1539 -9.4644,2.406 -25.71141,5.9848 -36.10447,7.9528 -10.39306,1.9681 -26.64207,4.7012 -36.1089,6.0735 -9.46683,1.3724 -24.81342,3.1657 -34.10352,3.9852 l -16.8911,1.49 -25,-0.1081 z m 21.36708,-29.3665 c 6.9481,-0.3699 18.80129,-1.2965 26.34041,-2.0592 7.53912,-0.7626 21.26412,-2.5548 30.5,-3.9826 9.23588,-1.4278 25.56751,-4.3542 36.29251,-6.5031 l 19.5,-3.90696 14.64457,-4.02423 c 8.05451,-2.21333 18.6406,-5.54917 23.52463,-7.41299 4.88404,-1.86382 16.12027,-7.0142 24.96941,-11.44528 8.84913,-4.43108 20.08804,-10.40402 24.97536,-13.27321 4.88732,-2.86918 13.46125,-8.31544 19.05318,-12.10279 l 10.16714,-6.8861 10.97448,-9.4316 10.97448,-9.43161 7.85838,-9.08379 c 4.3221,-4.99608 10.25062,-12.5461 13.17448,-16.77782 2.92385,-4.23172 7.28583,-11.29404 9.69328,-15.69404 2.40745,-4.4 6.18176,-12.5 8.38737,-18 l 4.01018,-10 3.0356,-11.77519 3.0356,-11.77519 1.51093,-11.52603 1.51093,-11.52602 0,-13.30922 c 0,-7.32006 -0.29012,-15.42585 -0.64471,-18.01285 l -0.6447,-4.70364 -9.63505,-8.68593 c -5.29927,-4.77726 -11.99044,-10.71093 -14.86925,-13.18593 l -5.23421,-4.5 1.08604,-9.5 1.08604,-9.5 0.8796,-0.90168 0.8796,-0.90168 7.29832,5.80523 c 4.01408,3.19288 8.75408,7.16788 10.53334,8.83333 l 3.23502,3.02809 0.66756,-0.66756 c 0.36716,-0.36716 0.6308,-1.96065 0.58586,-3.54109 -0.0449,-1.58044 -1.00329,-6.75391 -2.12968,-11.4966 -1.12638,-4.74268 -3.67521,-13.01843 -5.66405,-18.39055 l -3.61608,-9.76749 -5.382,-10.25837 c -2.9601,-5.6421 -7.6022,-13.54856 -10.31578,-17.56992 -2.71358,-4.02135 -7.76892,-10.88009 -11.23408,-15.24163 -3.46517,-4.36154 -10.14363,-11.9342 -14.84104,-16.82812 -4.69741,-4.89392 -12.75974,-12.66857 -17.91629,-17.27699 l -9.37554,-8.37895 -10.53406,-7.04398 -10.53406,-7.04399 -9.5904,-4.7925 c -5.27472,-2.63588 -13.69673,-6.40791 -18.71558,-8.38231 -5.01885,-1.97439 -14.24385,-4.94138 -20.5,-6.5933 -6.25615,-1.65191 -15.42482,-3.68872 -20.37482,-4.52622 -4.95,-0.83751 -15.52282,-2.01009 -23.49517,-2.60573 l -14.49516,-1.083 -14.50484,1.12943 c -7.97765,0.62118 -18.32983,1.78982 -23.00483,2.59697 -4.675,0.80715 -13.65031,2.80771 -19.94512,4.44568 l -11.44513,2.97815 -12.55487,5.03044 -12.55488,5.03044 -9.5,5.38113 c -5.225,2.95963 -12.65,7.61182 -16.5,10.33822 -3.85,2.72639 -10.47359,7.93694 -14.71908,11.57899 l -7.71908,6.62191 -10.60915,11.74683 c -5.835033,6.46075 -13.933486,16.13307 -17.99657,21.49404 -4.063084,5.36097 -9.963728,14.12473 -13.112543,19.47503 l -5.725118,9.7278 -4.300054,10.52498 c -2.365029,5.78873 -4.304183,11.31247 -4.30923,12.27497 l -0.0092,1.75 0.966259,0 c 0.531442,0 3.793942,-1.82957 7.25,-4.0657 l 6.283741,-4.06571 0.312306,7.31571 c 0.171769,4.02363 0.04359,9.14891 -0.284851,11.38951 l -0.597158,4.07381 -8.715149,6.05735 c -4.793331,3.33154 -9.916249,7.18061 -11.384262,8.55348 l -2.669113,2.49613 -1.119317,3.87271 c -0.615625,2.12999 -1.82748,9.04771 -2.693012,15.37271 l -1.573695,11.5 0.549018,16 0.549018,16 2.108642,11.5 2.108642,11.5 4.373274,13.12538 4.373273,13.12537 4.903803,10.37463 c 2.697092,5.70604 7.203239,14.07377 10.013661,18.59494 2.810422,4.52118 7.935445,11.94618 11.388941,16.5 l 6.279083,8.27968 10.038451,10.36551 10.03845,10.36551 8,6.46162 c 4.4,3.55389 12.43231,9.40254 17.84957,12.99699 l 9.84958,6.53537 12.1281,6.16348 12.12811,6.16349 2.27232,3.3719 2.27232,3.3719 0,5.2421 0,5.24211 -4.33547,5.86001 c -2.3845,3.22301 -7.61511,9.07553 -11.62357,13.00553 l -7.2881,7.1456 0.74064,1.1984 0.74065,1.1984 12.63293,-0.6726 z m 87.07817,-90.51532 -35.05475,0 0.37787,-54.75 0.37787,-54.75 1.7833,-7 1.7833,-7 3.92159,-8.44819 3.92158,-8.44818 5.51434,-7.32646 5.51433,-7.32646 14.94882,-15.387 14.94882,-15.387 1.09181,-2.83835 1.09182,-2.83836 -0.0252,-4.688 -0.0252,-4.688 -1.46273,-2.812 c -0.8045,-1.5466 -2.52412,-3.80302 -3.82138,-5.01427 -1.29727,-1.21125 -4.02557,-2.89875 -6.0629,-3.75 l -3.7043,-1.54773 -3.78212,0.006 c -2.08017,0.003 -5.47812,0.47656 -7.55101,1.05222 l -3.76888,1.04664 -3.60621,3.6062 -3.6062,3.60621 -2.32579,5.25902 -2.32579,5.25901 -2.20844,10.83256 -2.20845,10.83256 -1.09067,1.09738 -1.09068,1.09739 -31.227,-4.65772 c -17.17485,-2.56174 -31.52787,-4.95859 -31.89561,-5.32632 l -0.66861,-0.66862 1.60809,-12.77972 1.6081,-12.77973 2.60325,-8.99133 2.60325,-8.99133 3.99862,-7.99436 c 2.19923,-4.3969 5.70904,-10.25982 7.79957,-13.0287 2.09053,-2.76889 6.22408,-7.41692 9.18565,-10.32896 l 5.38469,-5.29462 6.67046,-4.45059 6.67045,-4.4506 6.82955,-2.81146 c 3.75625,-1.54673 10.20454,-3.67346 14.32954,-4.72651 l 7.5,-1.91462 16,0.10592 16,0.10591 8,2.15998 8,2.15999 7.19109,3.40683 c 3.9551,1.87376 9.96984,5.29385 13.36611,7.60021 l 6.17502,4.19338 5.76778,5.76778 5.76778,5.76778 4.22997,6.22891 c 2.32648,3.42589 5.54152,9.12148 7.14454,12.65684 l 2.91456,6.42795 2.04328,8.60326 2.04327,8.60327 -0.002,11.606 -0.002,11.60599 -2.07755,7.94198 -2.07755,7.94198 -3.48926,7.05802 -3.48926,7.05802 -6.38461,8.5 -6.3846,8.5 -14.63182,15.32649 -14.63182,15.32649 -1.68524,3.17351 -1.68523,3.17351 -0.40653,10.03988 -0.40653,10.03988 1.60564,1.33257 1.60564,1.33256 0,37.87755 0,37.87756 -35.05475,0 z m 0.52475,-13.23 20.03,-0.27 0,-24.5 0,-24.5 -19.87158,-0.27155 -19.87157,-0.27154 -1.37843,1.14399 -1.37842,1.14399 0,22.67755 0,22.67756 1.22,1.22 1.22001,1.22001 20.02999,-0.27001 z m -1.57967,-63.99845 18.60967,-0.27155 0.7035,-10 c 0.38693,-5.5 1.18895,-11.94445 1.78228,-14.321 l 1.07877,-4.321 2.48501,-3.9365 2.485,-3.9365 14.04425,-14.67311 14.04426,-14.6731 6.08992,-8.0694 6.08991,-8.06939 3.31334,-6.89831 3.31333,-6.8983 1.67076,-7.50976 1.67076,-7.50975 -0.55129,-10.09194 -0.55128,-10.09194 -2.19814,-7 c -1.20897,-3.85 -3.22427,-9.025 -4.47844,-11.5 -1.25416,-2.475 -4.35226,-7.2 -6.88467,-10.5 l -4.60437,-6 -6.20263,-5.24323 -6.20264,-5.24324 -7.76209,-4.03828 -7.7621,-4.03829 -7.47227,-1.91108 -7.47226,-1.91109 -8.31446,-0.6474 -8.31445,-0.64739 -8.5,1.09226 -8.5,1.09226 -7.74488,2.57816 -7.74489,2.57816 -7.25511,4.75165 -7.25512,4.75166 -6.17918,6.62881 -6.17919,6.62881 -3.5307,6.31349 c -1.94189,3.47242 -4.64899,9.28448 -6.01577,12.9157 l -2.48507,6.60221 -1.74992,9.12854 -1.74992,9.12854 0.95191,0.95191 0.9519,0.9519 17.27068,2.61096 c 9.49888,1.43602 17.98426,2.46786 18.8564,2.29297 l 1.58571,-0.31799 2.39184,-8.29364 2.39185,-8.29365 2.5778,-5.08705 2.5778,-5.08704 4.72604,-4.72604 4.72604,-4.72604 5.94089,-2.23812 5.94089,-2.23813 9,0.40975 9,0.40974 4.5,2.29114 4.5,2.29113 3.8364,3.64397 3.8364,3.64398 2.54725,4.98051 2.54726,4.98052 0.48899,6.09171 0.48898,6.0917 -1.62553,5.59165 -1.62554,5.59164 -4.1246,5.21801 c -2.26853,2.8699 -10.49532,11.79616 -18.28177,19.83613 l -14.15718,14.61813 -3.27743,4.77044 c -1.80259,2.62375 -4.6077,7.61315 -6.23358,11.08756 l -2.95613,6.31712 -1.48713,6.91244 -1.48713,6.91244 -0.64735,12.71351 -0.64736,12.71352 1.29305,1.55803 1.29306,1.55804 18.60967,-0.27155 z"
         id="path3011" />
    </g>
    <rect
       y="349.50504"
       x="-440"
       height="928.57141"
       width="1325.7142"
       id="rect5155"
       style="fill:#fefefd;fill-opacity:0" />
  </g>
</svg>
